<?xml version="1.0" encoding="utf-8"?>
<!-- Generator: Adobe Illustrator 16.0.3, SVG Export Plug-In . SVG Version: 6.00 Build 0)  -->
<!DOCTYPE svg PUBLIC "-//W3C//DTD SVG 1.1//EN" "http://www.w3.org/Graphics/SVG/1.1/DTD/svg11.dtd">
<svg version="1.1" id="Layer_1" xmlns="http://www.w3.org/2000/svg" xmlns:xlink="http://www.w3.org/1999/xlink" x="0px" y="0px"
	 width="24.833px" height="24.833px" viewBox="11.251 12.75 24.833 24.833" enable-background="new 11.251 12.75 24.833 24.833"
	 xml:space="preserve">
<circle fill="#D14242" cx="23.667" cy="25.166" r="12.417"/>
<path fill="#FFFFFF" d="M19.963,17.266c-1.637,0-2.963,1.547-2.963,3.456c0,1.636,0.973,3.005,2.28,3.364l-0.49,7.996
	c-0.033,0.542,0.384,0.986,0.927,0.986h0.494c0.543,0,0.961-0.444,0.927-0.986l-0.489-7.996c1.307-0.359,2.279-1.729,2.279-3.364
	C22.928,18.812,21.601,17.266,19.963,17.266L19.963,17.266z M29.922,17.266L29.1,22.203h-0.617l-0.412-4.938h-0.41l-0.413,4.938
	h-0.616l-0.823-4.938h-0.412v6.419c0,0.272,0.223,0.494,0.495,0.494h1.285l-0.485,7.903c-0.032,0.542,0.384,0.986,0.928,0.986h0.493
	c0.544,0,0.961-0.444,0.929-0.986l-0.485-7.903h1.286c0.272,0,0.493-0.222,0.493-0.494v-6.419H29.922L29.922,17.266z"/>
<path display="none" fill="#FFFFFF" d="M31.572,21.559H28.48v-1.546c0-1.423-2.77-2.577-6.185-2.577
	c-3.416,0-6.186,1.154-6.186,2.577V30.32c0,1.422,2.77,2.576,6.186,2.576c3.415,0,6.185-1.154,6.185-2.576v-1.546h3.092
	c0.57,0,1.031-0.462,1.031-1.032V22.59C32.604,22.02,32.143,21.559,31.572,21.559z M18.946,20.566
	c-0.596-0.196-0.957-0.407-1.15-0.554c0.193-0.147,0.554-0.357,1.15-0.556c0.934-0.307,2.123-0.476,3.35-0.476
	s2.416,0.169,3.349,0.476c0.596,0.198,0.957,0.408,1.15,0.556c-0.193,0.146-0.555,0.357-1.15,0.554
	c-0.933,0.308-2.122,0.477-3.349,0.477S19.878,20.874,18.946,20.566z M30.542,26.713H28.48v-3.094h2.062V26.713z"/>
</svg>
