<?xml version="1.0" encoding="utf-8"?>
<!DOCTYPE svg PUBLIC "-//W3C//DTD SVG 1.1//EN" "http://www.w3.org/Graphics/SVG/1.1/DTD/svg11.dtd">
<svg version="1.1" id="Layer_1" xmlns="http://www.w3.org/2000/svg" xmlns:xlink="http://www.w3.org/1999/xlink" x="0px" y="0px"
	 width="70.73px" height="46.773px" viewBox="0 0 70.73 46.773" enable-background="new 0 0 70.73 46.773" xml:space="preserve">
<g>
	<g>
		<path fill="#FFFFFF" d="M61.95,34.811c0.785,2.902-0.547,6.232-3.014,7.22c-15.289,6.133-31.558,6.322-46.986,0.546
			c-2.49-0.931-3.898-4.229-3.179-7.147l0,0c0.719-2.925,3.072-4.468,5.284-3.643c13.964,5.228,28.688,5.058,42.528-0.494
			C58.774,30.416,61.161,31.905,61.95,34.811L61.95,34.811z"/>
		<g>
			<path fill="#FFFFFF" d="M9.801,23.759c1.056,0.502,0.936,1.401,0.853,2.009c-0.086,0.639,1.294,0.747,1.708,0.582
				c1.137-0.455,2.409-0.966,3.504-0.712c0.887,0.206,1.253,0.968,1.613,1.72c0.169,0.352,0.659,1.434,2.152,0.528
				c0.98-0.594,2.132-1.161,3.229-1.022c0.998,0.125,1.506,0.928,2.13,1.613c1.052,1.158,1.914,0.543,2.298,0.271
				c0.887-0.629,1.874-1.331,2.993-1.285c1.047,0.041,1.791,0.748,2.521,1.443c1.267,1.205,1.627,0.863,2.656-0.022
				c0.8-0.688,1.612-1.388,2.692-1.431c1.137-0.047,2.155,0.633,3.068,1.241c1.516,1.012,1.861,0.668,2.681-0.289
				c0.628-0.735,1.267-1.48,2.298-1.606c1.126-0.137,2.278,0.457,3.309,0.989c1.136,0.586,1.996,0.378,2.541-0.556
				c0.436-0.745,0.877-1.5,1.805-1.696c1.14-0.239,2.438,0.272,3.596,0.729c0.438,0.173,2.191,0.582,2.098-0.62
				c-0.047-0.604-0.012-1.505,1.17-1.948c0.152-0.058,0.329-0.074,0.51-0.056c-1.094-1.758-2.928-2.521-4.645-1.836
				c-13.84,5.551-28.564,5.722-42.528,0.494c-1.564-0.583-3.196,0.018-4.274,1.451C9.787,23.753,9.794,23.756,9.801,23.759z"/>
			<path fill="#FFFFFF" d="M70.439,27.092c-1.025-2.801-4.171-4.227-7.067-3.373c-0.409,0.121-1.188,0.3-1.076,0.539
				c-0.023-0.002-0.046-0.004-0.066-0.004c-0.416,0.028-0.511,1.234-0.511,1.234c-0.03,0.123-0.03,0.295-0.02,0.552
				c0.026,0.737,0.065,1.878-1.741,2.384c-0.9,0.252-2.027-0.202-3.107-0.638c-1.686-0.681-2.202-0.682-2.802,0.409
				c-0.471,0.85-1.015,1.834-2.235,2.048c-1.082,0.187-2.203-0.407-3.273-0.972c-1.37-0.726-2.021-0.695-2.818,0.271
				c-0.654,0.797-1.413,1.719-2.654,1.826c-1.164,0.098-2.185-0.602-3.156-1.269c-1.501-1.032-1.805-0.882-2.876,0.071
				c-0.827,0.734-1.784,1.584-3.032,1.584c-1.226,0-2.103-0.863-2.863-1.612c-0.318-0.312-1.141-1.088-2.507-0.036
				c-0.915,0.705-1.915,1.396-3.041,1.302c-1.22-0.104-1.901-1.041-2.491-1.85c-0.238-0.328-0.787-1.064-2.463-0.221
				c-1.063,0.534-2.128,1.187-3.175,0.995c-1.194-0.221-1.647-1.226-2.037-2.094c-0.145-0.32-0.812-1.173-2.461-0.375
				c-1.031,0.499-2.168,0.889-3.032,0.609c-1.728-0.558-1.532-1.764-1.419-2.469c0.072-0.446,0.025-0.838-0.073-0.941
				c0.034-0.141-0.566-0.363-0.556-0.467c-0.423-0.109-0.22-0.113-0.642-0.227c-2.917-0.787-6.027,0.711-6.989,3.535
				c-0.961,2.818,0.884,5.994,4.167,6.882c0.963,0.261,1.929,0.509,2.897,0.743C7.354,35.3,7.4,35.066,7.457,34.836
				c0.72-2.926,2.886-4.893,5.391-4.893c0.568,0,1.132,0.104,1.677,0.306c6.582,2.466,13.567,4.399,20.373,4.399
				c0,0,0.001,0,0.002,0c7.241,0,14.237-2.097,21.178-4.881c0.576-0.23,1.174-0.347,1.779-0.347c2.453,0,4.622,1.915,5.395,4.767
				c0.064,0.241,0.118,0.484,0.159,0.729c1.01-0.269,2.017-0.552,3.021-0.85C69.694,33.104,71.466,29.888,70.439,27.092z"/>
		</g>
	</g>
	<g>
		<path fill="#FFFFFF" d="M27.922,9.351c0.779-1.753,0.974-3.701,0.39-5.649c-0.39-1.559-2.143-2.728-3.701-1.948
			c0,0-0.195,0.194-0.195,0.389c0.195,1.559,0.973,2.922,0.584,4.48c-0.584,1.948-1.947,3.312-2.532,5.259
			c-0.585,1.753-0.39,3.702,0.389,5.26c0.537,0.895,1.115,1.646,3.015,1.646c0.468,0,0.848-0.38,0.848-0.848
			c0-0.131-1.434-3.417-0.551-5.279C26.753,11.493,27.532,10.52,27.922,9.351z"/>
		<path fill="#FFFFFF" d="M47.874,9.351c0.78-1.753,0.974-3.701,0.39-5.649c-0.39-1.559-2.144-2.728-3.701-1.948
			c0,0-0.194,0.194-0.194,0.389c0.194,1.559,0.974,2.922,0.585,4.48c-0.585,1.948-1.949,3.312-2.533,5.259
			c-0.585,1.753-0.39,3.702,0.39,5.26c0.537,0.895,1.115,1.646,3.014,1.646c0.469,0,0.848-0.38,0.848-0.848
			c0-0.131-1.434-3.417-0.551-5.279C46.707,11.493,47.485,10.52,47.874,9.351z"/>
		<path fill="#FFFFFF" d="M38.829,8.182c0.391-1.169,0.197-2.338,0.197-3.506c0-0.779-0.197-1.364-0.391-2.143
			c-0.018-0.076-0.069-0.155-0.103-0.226c-0.035-0.075-0.071-0.149-0.107-0.223c-0.075-0.147-0.156-0.292-0.246-0.431
			c-0.185-0.284-0.409-0.54-0.659-0.769c-0.251-0.231-0.527-0.441-0.826-0.604c-0.289-0.156-0.607-0.264-0.936-0.278
			c-0.263-0.011-0.527,0.023-0.784,0.078c-0.252,0.054-0.522,0.104-0.725,0.276C34.2,0.398,34.154,0.45,34.12,0.505
			c-0.076,0.122-0.055,0.238-0.013,0.368c0.026,0.082,0.036,0.167,0.058,0.249c0.027,0.103,0.053,0.204,0.08,0.306
			c0.055,0.207,0.111,0.412,0.169,0.618c0.116,0.418,0.235,0.835,0.346,1.254c0.108,0.408,0.211,0.819,0.283,1.235
			c0.072,0.41,0.109,0.826,0.069,1.241c-0.041,0.439-0.171,0.861-0.317,1.275c-0.018,0.05-0.032,0.105-0.055,0.154
			c-0.974,2.143-2.337,3.896-2.922,6.233c-0.584,2.338-0.584,5.064,0.974,7.013c0.779,0.778,2.143,1.559,3.312,0.778
			c0.194-0.194,0.39-0.39,0.39-0.584c0-0.39,0-0.584-0.195-0.974c-0.779-1.753-0.974-3.702-0.391-5.454
			C36.882,12.078,38.247,10.325,38.829,8.182z"/>
	</g>
</g>
</svg>
