<?xml version="1.0" encoding="utf-8"?>
<!-- Generator: Adobe Illustrator 16.0.3, SVG Export Plug-In . SVG Version: 6.00 Build 0)  -->
<!DOCTYPE svg PUBLIC "-//W3C//DTD SVG 1.1//EN" "http://www.w3.org/Graphics/SVG/1.1/DTD/svg11.dtd">
<svg version="1.1" id="Layer_1" xmlns="http://www.w3.org/2000/svg" xmlns:xlink="http://www.w3.org/1999/xlink" x="0px" y="0px"
	 width="24.833px" height="24.833px" viewBox="0 0 24.833 24.833" enable-background="new 0 0 24.833 24.833" xml:space="preserve">
<circle fill="#337CC4" cx="12.416" cy="12.416" r="12.417"/>
<path display="none" fill="#FFFFFF" d="M8.31,3.21c-1.907,0-3.452,1.804-3.452,4.026c0,1.905,1.133,3.501,2.656,3.919l-0.571,9.315
	c-0.038,0.631,0.447,1.147,1.08,1.147h0.575c0.633,0,1.119-0.518,1.08-1.147l-0.57-9.315c1.521-0.418,2.655-2.014,2.655-3.919
	C11.763,5.014,10.217,3.21,8.31,3.21L8.31,3.21z M19.911,3.21l-0.959,5.754h-0.719L17.754,3.21h-0.479l-0.479,5.754h-0.719
	L15.118,3.21h-0.479v7.479c0,0.317,0.259,0.575,0.575,0.575h1.498l-0.564,9.207c-0.038,0.631,0.447,1.148,1.08,1.148h0.574
	c0.635,0,1.119-0.519,1.082-1.148l-0.565-9.207h1.499c0.316,0,0.574-0.258,0.574-0.575V3.21H19.911L19.911,3.21z"/>
<g>
	<g>
		<path fill="#FFFFFF" d="M9.887,9.749c-0.308,0-0.559,0.283-0.559,0.634v7.719c0,0.352,0.25,0.634,0.559,0.634
			c0.309,0,0.559-0.282,0.559-0.634v-7.719C10.446,10.032,10.196,9.749,9.887,9.749z"/>
		<path fill="#FFFFFF" d="M12.424,9.749c-0.309,0-0.56,0.283-0.56,0.634v7.719c0,0.352,0.25,0.634,0.56,0.634
			c0.308,0,0.558-0.282,0.558-0.634v-7.719C12.982,10.032,12.732,9.749,12.424,9.749z"/>
		<path fill="#FFFFFF" d="M14.96,9.749c-0.309,0-0.56,0.283-0.56,0.634v7.719c0,0.352,0.251,0.634,0.56,0.634
			s0.559-0.282,0.559-0.634v-7.719C15.519,10.032,15.269,9.749,14.96,9.749z"/>
		<path fill="#FFFFFF" d="M18.763,10.152h-1.245l-0.136-2.426c-0.001-0.02-0.004-0.038-0.009-0.056
			c0.429-0.408,0.698-0.98,0.698-1.616c0-1.226-0.992-2.223-2.216-2.231c-0.148-0.813-0.86-1.433-1.716-1.433
			c-0.285,0-0.552,0.076-0.791,0.199c-0.396-0.358-0.919-0.578-1.493-0.578c-0.876,0-1.633,0.509-1.998,1.245
			C8.329,3.272,7.089,4.52,7.089,6.053c0,0.542,0.157,1.046,0.425,1.475c-0.029,0.061-0.046,0.127-0.05,0.198L6.74,20.677
			c-0.008,0.149,0.045,0.296,0.147,0.404c0.103,0.107,0.245,0.171,0.395,0.171h10.283c0.149,0,0.292-0.063,0.395-0.171
			c0.103-0.108,0.157-0.255,0.147-0.404l-0.151-2.697h0.806c1.336,0,2.423-1.053,2.423-2.348V12.5
			C21.184,11.206,20.097,10.152,18.763,10.152z M9.64,3.995c0.081-0.01,0.164-0.016,0.247-0.016c0.167,0,0.328,0.022,0.482,0.06
			c0.034-0.251,0.127-0.482,0.271-0.678c0.274-0.376,0.714-0.625,1.215-0.625c0.348,0,0.665,0.124,0.92,0.323
			c0.202,0.157,0.367,0.358,0.467,0.598c0.122-0.226,0.324-0.4,0.569-0.483c0.104-0.036,0.213-0.059,0.327-0.059
			c0.495,0,0.91,0.354,1.003,0.822c0.011,0.064,0.02,0.131,0.02,0.2c0,0.186-0.02,0.349-0.089,0.551
			c0.037,0.029,0.503-0.139,0.76-0.141c0.003,0,0.006,0,0.009,0c0.831,0,1.507,0.676,1.507,1.506c0,0.469-0.219,0.883-0.557,1.159
			h-4.4h-0.788H8.169C7.945,6.881,7.813,6.482,7.813,6.053C7.813,4.994,8.612,4.119,9.64,3.995z M7.857,20.166L8.511,8.487
			l0.01-0.188h3.029h4.777l0.114,2.076l0.046,0.803l0.332,5.953l0.044,0.773l0.127,2.259L7.857,20.166L7.857,20.166z M17.661,12.684
			h0.942v2.765h-0.79L17.661,12.684z M20.459,15.632c0,0.895-0.763,1.624-1.698,1.624h-0.846l-0.061-1.083h0.906
			c0.312,0,0.566-0.242,0.566-0.541V12.5c0-0.3-0.254-0.542-0.566-0.542h-1.144l-0.06-1.082h1.203c0.936,0,1.698,0.728,1.698,1.623
			V15.632z"/>
	</g>
</g>
</svg>
