<?xml version="1.0" encoding="utf-8"?>
<!-- Generator: Adobe Illustrator 21.1.0, SVG Export Plug-In . SVG Version: 6.00 Build 0)  -->
<svg version="1.1" id="Layer_1" xmlns="http://www.w3.org/2000/svg" xmlns:xlink="http://www.w3.org/1999/xlink" x="0px" y="0px"
	 viewBox="0 0 24 24" style="enable-background:new 0 0 24 24;" xml:space="preserve">
<style type="text/css">
	.st0{fill:none;stroke:#000000;stroke-linecap:round;stroke-linejoin:round;}
</style>
<path class="st0" d="M18.5,21.8L18.5,21.8c0,1.9-6.4,1.9-7.2,1.9c-1.8,0-3.5-0.2-4.8-0.4C5,23,4.1,22.5,4.1,21.8l0,0L4.6,8.4
	c0-0.2,0.1-0.2,0.3-0.2c0.2,0,0.2,0.1,0.2,0.3L4.6,21.8c0,0.7,2.6,1.4,6.7,1.4s6.7-0.7,6.7-1.4L17.4,8.4c0-0.2,0.1-0.3,0.2-0.3
	c0.2,0,0.3,0.1,0.3,0.2L18.5,21.8z M15.4,20.6L15.4,20.6c0.2,0,0.3-0.1,0.2-0.3L15.2,9.6c0-0.2-0.1-0.2-0.3-0.2s-0.2,0.1-0.2,0.3
	l0.5,10.8C15.2,20.6,15.2,20.6,15.4,20.6z M7.2,20.6c0.1,0,0.2-0.1,0.2-0.2l0.2-6.1c0-0.2-0.1-0.3-0.2-0.3c-0.2,0-0.3,0.1-0.3,0.2
	l-0.2,6.1C7,20.5,7,20.6,7.2,20.6L7.2,20.6z M18.7,5.3c0,1.6-1.5,2.9-3.3,2.9c-0.7,0-1.5-0.2-2.1-0.6C12.7,8,12,8.2,11.2,8.2
	c-0.3,0-0.5,0-0.7-0.1v0.2c0,1,0.2,1.9,0.7,2.6c0.2,0.3,0.3,0.7,0.3,1.1c0,1.2-1,2.2-2.2,2.2H9.2c-1.2-0.1-2.1-1-2.1-2.2
	c0-0.4,0.1-0.8,0.3-1.2C7.9,10,8.1,9.1,8.1,8l0,0C7.8,8.1,7.6,8.1,7.2,8.1C5.5,8.1,4,6.8,4,5.2s1.5-2.9,3.3-2.9l0,0
	c0.6,0,1-0.2,1.4-0.7c0.6-0.8,1.6-1.3,2.7-1.3s2.1,0.5,2.7,1.3c0.3,0.4,0.8,0.7,1.4,0.7l0,0C17.2,2.4,18.7,3.7,18.7,5.3z M18.1,5.3
	c0-1.3-1.2-2.4-2.8-2.4l0,0c-0.7,0-1.4-0.3-1.8-0.9c-0.4-0.6-1.3-1-2.2-1c-1,0-1.8,0.3-2.4,1c-0.4,0.5-1,0.9-1.8,0.9l0,0l0,0
	c-1.5,0-2.8,1-2.8,2.4c0,1.3,1.2,2.4,2.8,2.4c0.4,0,0.7-0.1,1.1-0.2c0,0,0,0,0.1,0c0,0,0.1,0,0.2,0c0.1,0,0.1,0.1,0.1,0.2v0.5
	c0,1.1-0.3,2.1-0.8,3c-0.2,0.3-0.2,0.6-0.2,0.9c0,0.9,0.7,1.6,1.6,1.7c1,0,1.8-0.7,1.8-1.7c0-0.3-0.1-0.6-0.2-0.9
	C10.3,10.3,10,9.3,10,8.3V7.8c0-0.1,0-0.2,0.1-0.2s0.2-0.1,0.2,0c0.3,0.1,0.6,0.2,0.9,0.2c0.7,0,1.4-0.2,1.9-0.7
	c0.1-0.1,0.2-0.1,0.3,0c0.5,0.4,1.2,0.7,1.9,0.7C16.9,7.6,18.1,6.5,18.1,5.3z M21.7,14c0-0.1,0-0.2,0-0.2c0-0.1,0-0.2,0-0.2
	c0-1.1,0-2.8-0.9-3.7c-0.4-0.4-1-0.6-1.6-0.6C19,9.3,19,9.4,19,9.6s0.1,0.2,0.3,0.2c0.5,0,0.9,0.1,1.2,0.4c0.7,0.7,0.8,2.3,0.8,3.3
	c0,0.1,0,0.2,0,0.2c0,0.1,0,0.2,0,0.2c0,1,0,2.6-0.7,3.3c-0.3,0.3-0.7,0.5-1.2,0.5c-0.2,0-0.2,0.1-0.2,0.3c0,0.2,0.1,0.2,0.2,0.2
	l0,0c0.7,0,1.2-0.2,1.6-0.6C21.8,16.8,21.7,15.1,21.7,14z M11.5,20.4v-6.1c0-0.2-0.1-0.3-0.3-0.3s-0.3,0.1-0.3,0.3v6.1
	c0,0.2,0.1,0.3,0.3,0.3C11.4,20.6,11.5,20.5,11.5,20.4z"/>
</svg>
