<svg xmlns="http://www.w3.org/2000/svg" version="1.1" x="0px" y="0px" width="24.833px" height="24.833px" viewBox="0 0 24.8 24.8" xml:space="preserve">
<style type="text/css">
	.st0{fill:#337CC4;}
	.st1{display:none;fill:#FFFFFF;}
	.st2{fill:none;stroke:#FFFFFF;stroke-linecap:round;stroke-linejoin:round;}
</style>
<circle class="st0" cx="12.4" cy="12.4" r="12.4"/>
<path class="st1" d="M8.3,3.2c-1.9,0-3.5,1.8-3.5,4c0,1.9,1.1,3.5,2.7,3.9l-0.6,9.3c0,0.6,0.4,1.1,1.1,1.1h0.6
	c0.6,0,1.1-0.5,1.1-1.1l-0.6-9.3c1.5-0.4,2.7-2,2.7-3.9C11.8,5,10.2,3.2,8.3,3.2L8.3,3.2z M19.9,3.2L19,9h-0.7l-0.5-5.8h-0.5L16.8,9
	h-0.7l-1-5.8h-0.5v7.5c0,0.3,0.3,0.6,0.6,0.6h1.5l-0.6,9.2c0,0.6,0.4,1.1,1.1,1.1h0.6c0.6,0,1.1-0.5,1.1-1.1l-0.6-9.2h1.5
	c0.3,0,0.6-0.3,0.6-0.6V3.2H19.9L19.9,3.2z"/>
<path class="st2" d="M17.9,19.4L17.9,19.4c0,1.5-5.1,1.5-5.7,1.5c-1.4,0-2.8-0.2-3.8-0.3c-1.2-0.2-1.9-0.6-1.9-1.2l0,0L6.9,8.8
	c0-0.2,0.1-0.2,0.2-0.2c0.2,0,0.2,0.1,0.2,0.2L6.9,19.4c0,0.6,2.1,1.1,5.3,1.1s5.3-0.6,5.3-1.1L17,8.8c0-0.2,0.1-0.2,0.2-0.2
	c0.2,0,0.2,0.1,0.2,0.2L17.9,19.4z M15.4,18.5L15.4,18.5c0.2,0,0.2-0.1,0.2-0.2l-0.3-8.5c0-0.2-0.1-0.2-0.2-0.2s-0.2,0.1-0.2,0.2
	l0.4,8.6C15.3,18.5,15.3,18.5,15.4,18.5z M8.9,18.5c0.1,0,0.2-0.1,0.2-0.2l0.2-4.9c0-0.2-0.1-0.2-0.2-0.2c-0.2,0-0.2,0.1-0.2,0.2
	l-0.2,4.9C8.8,18.4,8.8,18.5,8.9,18.5L8.9,18.5z M18.1,6.3c0,1.3-1.2,2.3-2.6,2.3c-0.6,0-1.2-0.2-1.7-0.5c-0.5,0.3-1,0.5-1.7,0.5
	c-0.2,0-0.4,0-0.6-0.1v0.2c0,0.8,0.2,1.5,0.6,2.1c0.2,0.2,0.2,0.6,0.2,0.9c0,1-0.8,1.8-1.8,1.8h-0.1c-1-0.1-1.7-0.8-1.7-1.8
	c0-0.3,0.1-0.6,0.2-1C9.5,10,9.6,9.3,9.6,8.4l0,0C9.4,8.5,9.2,8.5,8.9,8.5c-1.4,0-2.5-1-2.5-2.3S7.6,3.9,9,3.9l0,0
	c0.5,0,0.8-0.2,1.1-0.6c0.5-0.6,1.3-1,2.1-1c0.9,0,1.7,0.4,2.1,1c0.2,0.3,0.6,0.6,1.1,0.6l0,0C16.9,4,18.1,5,18.1,6.3z M17.6,6.3
	c0-1-1-1.9-2.2-1.9l0,0c-0.6,0-1.1-0.2-1.4-0.7c-0.3-0.5-1-0.8-1.8-0.8c-0.8,0-1.4,0.2-1.9,0.8C10,4.1,9.5,4.4,8.8,4.4l0,0l0,0
	c-1.2,0-2.2,0.8-2.2,1.9c0,1,1,1.9,2.2,1.9c0.3,0,0.6-0.1,0.9-0.2c0,0,0,0,0.1,0c0,0,0.1,0,0.2,0C10,8.1,10,8.1,10,8.2v0.4
	c0,0.9-0.2,1.7-0.6,2.4c-0.2,0.2-0.2,0.5-0.2,0.7c0,0.7,0.6,1.3,1.3,1.4c0.8,0,1.4-0.6,1.4-1.4c0-0.2-0.1-0.5-0.2-0.7
	c-0.4-0.7-0.6-1.5-0.6-2.3V8.3c0-0.1,0-0.2,0.1-0.2s0.2-0.1,0.2,0c0.2,0.1,0.5,0.2,0.7,0.2c0.6,0,1.1-0.2,1.5-0.6
	c0.1-0.1,0.2-0.1,0.2,0c0.4,0.3,1,0.6,1.5,0.6C16.6,8.1,17.6,7.3,17.6,6.3z M20.5,13.2c0-0.1,0-0.2,0-0.2c0-0.1,0-0.2,0-0.2
	c0-0.9,0-2.2-0.7-2.9c-0.3-0.3-0.8-0.5-1.3-0.5c-0.2,0-0.2,0.1-0.2,0.2s0.1,0.2,0.2,0.2c0.4,0,0.7,0.1,1,0.3
	c0.6,0.6,0.6,1.8,0.6,2.6c0,0.1,0,0.2,0,0.2c0,0.1,0,0.2,0,0.2c0,0.8,0,2.1-0.6,2.6c-0.2,0.2-0.6,0.4-1,0.4c-0.2,0-0.2,0.1-0.2,0.2
	s0.1,0.2,0.2,0.2l0,0c0.6,0,1-0.2,1.3-0.5C20.5,15.5,20.5,14.1,20.5,13.2z M12.3,18.3v-4.9c0-0.2-0.1-0.2-0.2-0.2s-0.2,0.1-0.2,0.2
	v4.9c0,0.2,0.1,0.2,0.2,0.2C12.3,18.5,12.3,18.4,12.3,18.3z"/>
</svg>
