<svg xmlns="http://www.w3.org/2000/svg" width="24" height="24" viewBox="0 0 24 24" fill="none" stroke="#000" stroke-width="1" stroke-linecap="round" stroke-linejoin="round">
	<path d="M9.8,15h4.4v-1.1h-1.5V8.7h-1.3l-1.7,1.6l0.9,0.9c0.3-0.3,0.5-0.5,0.6-0.7h0v3.3H9.8V15z M15.7,12
	c0,0.5-0.1,1.1-0.2,1.6c-0.2,0.6-0.4,1.1-0.7,1.5s-0.7,0.9-1.2,1.2c-0.5,0.3-1,0.5-1.6,0.5s-1.1-0.2-1.6-0.5
	c-0.5-0.3-0.9-0.7-1.2-1.2c-0.3-0.5-0.5-1-0.7-1.5c-0.2-0.6-0.2-1.1-0.2-1.6s0.1-1.1,0.2-1.6c0.2-0.6,0.4-1.1,0.7-1.5
	c0.3-0.5,0.7-0.9,1.2-1.2c0.5-0.3,1-0.5,1.6-0.5s1.1,0.2,1.6,0.5c0.5,0.3,0.9,0.7,1.2,1.2c0.3,0.5,0.5,1,0.7,1.5
	C15.6,10.9,15.7,11.5,15.7,12z M21.6,15V9c-0.8,0-1.5-0.3-2.1-0.9c-0.6-0.6-0.9-1.3-0.9-2.1H5.3c0,0.8-0.3,1.5-0.9,2.1
	C3.9,8.8,3.2,9,2.4,9V15c0.8,0,1.5,0.3,2.1,0.9c0.6,0.6,0.9,1.3,0.9,2.1h13.3c0-0.8,0.3-1.5,0.9-2.1C20.1,15.2,20.8,15,21.6,15z
	M23.1,5.3v13.3c0,0.2-0.1,0.4-0.2,0.5s-0.3,0.2-0.5,0.2H1.7c-0.2,0-0.4-0.1-0.5-0.2s-0.2-0.3-0.2-0.5V5.3C0.9,5.1,1,5,1.1,4.8
	s0.3-0.2,0.5-0.2h20.7c0.2,0,0.4,0.1,0.5,0.2S23.1,5.1,23.1,5.3z"/>
</svg>
