<?xml version="1.0" encoding="utf-8"?>
<!-- Generator: Adobe Illustrator 21.1.0, SVG Export Plug-In . SVG Version: 6.00 Build 0)  -->
<svg version="1.1" id="Layer_1" xmlns="http://www.w3.org/2000/svg" xmlns:xlink="http://www.w3.org/1999/xlink" x="0px" y="0px"
	 viewBox="0 0 24 24" style="enable-background:new 0 0 24 24;" xml:space="preserve">
<path d="M6.6,0.5c-2.4,0-4.3,2.3-4.3,5c0,2.4,1.4,4.4,3.3,4.9L4.9,22.1c0,0.8,0.6,1.4,1.3,1.4H7c0.8,0,1.4-0.6,1.3-1.4L7.6,10.4
	c1.9-0.5,3.3-2.5,3.3-4.9C10.9,2.8,9,0.5,6.6,0.5L6.6,0.5z M21.1,0.5l-1.2,7.2H19l-0.6-7.2h-0.6l-0.6,7.2h-0.9l-1.2-7.2h-0.6v9.3
	c0,0.4,0.3,0.7,0.7,0.7h1.9l-0.7,11.5c0,0.8,0.6,1.4,1.4,1.4h0.7c0.8,0,1.4-0.6,1.4-1.4l-0.7-11.5H21c0.4,0,0.7-0.3,0.7-0.7V0.5
	L21.1,0.5L21.1,0.5z"/>
</svg>
