<?xml version="1.0" encoding="utf-8"?>
<!-- Generator: Adobe Illustrator 21.1.0, SVG Export Plug-In . SVG Version: 6.00 Build 0)  -->
<svg version="1.1" id="Layer_1" xmlns="http://www.w3.org/2000/svg" xmlns:xlink="http://www.w3.org/1999/xlink" x="0px" y="0px"
	 viewBox="0 0 24 24" style="enable-background:new 0 0 24 24;" xml:space="preserve">
<style type="text/css">
	.st0{fill:none;stroke:#000000;stroke-width:2;stroke-linecap:round;stroke-linejoin:round;}
	.st1{stroke:#000000;stroke-linecap:round;stroke-linejoin:round;}
</style>
<polygon class="st0" points="12,2 15.1,8.3 22,9.3 17,14.1 18.2,21 12,17.8 5.8,21 7,14.1 2,9.3 8.9,8.3 "/>
<g id="Layer_2">
	<path class="st1" d="M11.5,4v13.4c0.1,0,0.1,0,0.2,0c-0.4,0.6-1.2,1-2,1.2c-0.8,0.2-1.5,0.3-2.2,0.7c-0.3,0.2-0.7,0.3-0.9,0.1
		c-0.1-0.1-0.1-0.3-0.1-0.4c0-1.5,0.7-3,0.6-4.6c0-0.3-0.1-0.5-0.2-0.8c-0.1-0.3-0.4-0.4-0.6-0.6c-0.9-0.7-1.6-1.5-2.3-2.4
		C3.8,10.4,3.6,10,3.7,9.8C3.8,9.5,4,9.4,4.2,9.4C5.3,9,6.4,8.5,7.6,8.4c0.6-0.1,1.3-0.1,1.8-0.5C9.7,7.5,9.8,7,9.9,6.5
		c0.2-0.5,0.4-0.9,0.7-1.2c0.3-0.3,0.6-0.6,0.6-1.1"/>
</g>
</svg>
